<svg width="20" height="20" viewBox="0 0 20 20" fill="none" xmlns="http://www.w3.org/2000/svg">
<g id="Icon/Mail">
<path id="Union" fill-rule="evenodd" clip-rule="evenodd" d="M2.81541 4.58333C2.93828 4.43143 3.12578 4.33325 3.33344 4.33325H16.6668C16.8744 4.33325 17.0619 4.43143 17.1848 4.58333L10.0001 9.61262L2.81541 4.58333ZM0.666832 4.982C0.666661 4.99207 0.666641 5.00213 0.666773 5.01219V14.9999C0.666773 16.4689 1.86449 17.6666 3.33344 17.6666H16.6668C18.1357 17.6666 19.3334 16.4689 19.3334 14.9999V5.0122C19.3336 5.00213 19.3336 4.99206 19.3334 4.98198C19.3237 3.52123 18.1297 2.33325 16.6668 2.33325H3.33344C1.87047 2.33325 0.676525 3.52124 0.666832 4.982ZM17.3334 6.9206V14.9999C17.3334 15.3643 17.0312 15.6666 16.6668 15.6666H3.33344C2.96906 15.6666 2.66677 15.3643 2.66677 14.9999V6.92059L9.42664 11.6525C9.77096 11.8935 10.2292 11.8935 10.5736 11.6525L17.3334 6.9206Z" fill="white"/>
</g>
</svg>
