<svg width="20" height="20" viewBox="0 0 20 20" fill="none" xmlns="http://www.w3.org/2000/svg">
<g id="Icon/Phone" clip-path="url(#clip0_714_3677)">
<path id="Vector" d="M18.3333 14.0999V16.5999C18.3342 16.832 18.2867 17.0617 18.1937 17.2744C18.1007 17.487 17.9643 17.6779 17.7933 17.8348C17.6223 17.9917 17.4204 18.1112 17.2005 18.1855C16.9807 18.2599 16.7477 18.2875 16.5166 18.2666C13.9523 17.988 11.4891 17.1117 9.32492 15.7083C7.31145 14.4288 5.60437 12.7217 4.32492 10.7083C2.91657 8.53426 2.04013 6.05908 1.76659 3.48325C1.74577 3.25281 1.77315 3.02055 1.84701 2.80127C1.92086 2.58199 2.03957 2.38049 2.19556 2.2096C2.35156 2.03871 2.54143 1.90218 2.75308 1.80869C2.96474 1.7152 3.19354 1.6668 3.42492 1.66658H5.92492C6.32935 1.6626 6.72142 1.80582 7.02806 2.06953C7.3347 2.33324 7.53499 2.69946 7.59159 3.09992C7.69711 3.89997 7.8928 4.68552 8.17492 5.44158C8.28704 5.73985 8.31131 6.06401 8.24485 6.37565C8.17838 6.68729 8.02398 6.97334 7.79992 7.19992L6.74159 8.25825C7.92789 10.3445 9.6553 12.072 11.7416 13.2583L12.7999 12.1999C13.0265 11.9759 13.3126 11.8215 13.6242 11.755C13.9358 11.6885 14.26 11.7128 14.5583 11.8249C15.3143 12.107 16.0999 12.3027 16.8999 12.4083C17.3047 12.4654 17.6744 12.6693 17.9387 12.9812C18.203 13.2931 18.3434 13.6912 18.3333 14.0999Z" stroke="white" stroke-width="2" stroke-linecap="round" stroke-linejoin="round"/>
</g>
<defs>
<clipPath id="clip0_714_3677">
<rect width="20" height="20" fill="white"/>
</clipPath>
</defs>
</svg>
